<?xml version="1.0" encoding="UTF-8" standalone="no"?>
<!DOCTYPE svg PUBLIC "-//W3C//DTD SVG 1.1//EN"
 "http://www.w3.org/Graphics/SVG/1.1/DTD/svg11.dtd">
<!-- Generated by graphviz version 2.40.1 (20161225.0304)
 -->
<!-- Title: data_flow_diagram Pages: 1 -->
<svg width="305pt" height="399pt"
 viewBox="0.00 0.00 304.55 399.20" xmlns="http://www.w3.org/2000/svg" xmlns:xlink="http://www.w3.org/1999/xlink">
<g id="graph0" class="graph" transform="scale(1 1) rotate(0) translate(4 395.2)">
<title>data_flow_diagram</title>
<polygon fill="#ffffff" stroke="transparent" points="-4,4 -4,-395.2 300.5482,-395.2 300.5482,4 -4,4"/>
<!-- start -->
<g id="node1" class="node">
<title>start</title>
<polygon fill="none" stroke="#000000" points="138.9612,-391.2 84.9612,-391.2 84.9612,-355.2 138.9612,-355.2 138.9612,-391.2"/>
<text text-anchor="middle" x="111.9612" y="-369" font-family="Times,serif" font-size="14.00" fill="#000000">start</text>
</g>
<!-- pre1 -->
<g id="node3" class="node">
<title>pre1</title>
<ellipse fill="none" stroke="#000000" cx="98.9612" cy="-284.4" rx="28.3913" ry="18"/>
<text text-anchor="middle" x="98.9612" y="-280.2" font-family="Times,serif" font-size="14.00" fill="#000000">pre1</text>
</g>
<!-- start&#45;&gt;pre1 -->
<g id="edge1" class="edge">
<title>start&#45;&gt;pre1</title>
<path fill="none" stroke="#000000" d="M104.5466,-355.1794C102.5598,-349.5221 100.6774,-343.1884 99.6414,-337.2 98.2877,-329.3749 97.7722,-320.7999 97.6827,-312.8785"/>
<polygon fill="#000000" stroke="#000000" points="101.1851,-312.6482 97.7859,-302.6134 94.1854,-312.5777 101.1851,-312.6482"/>
<text text-anchor="middle" x="122.1211" y="-324.6" font-family="Times,serif" font-size="14.00" fill="#000000">data1_1</text>
</g>
<!-- pre2 -->
<g id="node4" class="node">
<title>pre2</title>
<ellipse fill="none" stroke="#000000" cx="198.9612" cy="-284.4" rx="28.3913" ry="18"/>
<text text-anchor="middle" x="198.9612" y="-280.2" font-family="Times,serif" font-size="14.00" fill="#000000">pre2</text>
</g>
<!-- start&#45;&gt;pre2 -->
<g id="edge2" class="edge">
<title>start&#45;&gt;pre2</title>
<path fill="none" stroke="#000000" d="M129.6558,-355.1115C139.6333,-344.9144 152.3295,-331.9433 163.6414,-320.4 167.8813,-316.0733 172.4093,-311.4557 176.76,-307.0206"/>
<polygon fill="#000000" stroke="#000000" points="179.3271,-309.4017 183.8322,-299.8124 174.3304,-304.4993 179.3271,-309.4017"/>
<text text-anchor="middle" x="186.1211" y="-324.6" font-family="Times,serif" font-size="14.00" fill="#000000">data2_1</text>
</g>
<!-- end -->
<g id="node2" class="node">
<title>end</title>
<polygon fill="none" stroke="#000000" points="140.9612,-36 86.9612,-36 86.9612,0 140.9612,0 140.9612,-36"/>
<text text-anchor="middle" x="113.9612" y="-13.8" font-family="Times,serif" font-size="14.00" fill="#000000">end</text>
</g>
<!-- main -->
<g id="node5" class="node">
<title>main</title>
<ellipse fill="none" stroke="#000000" cx="113.9612" cy="-195.6" rx="30.1958" ry="18"/>
<text text-anchor="middle" x="113.9612" y="-191.4" font-family="Times,serif" font-size="14.00" fill="#000000">main</text>
</g>
<!-- pre1&#45;&gt;main -->
<g id="edge3" class="edge">
<title>pre1&#45;&gt;main</title>
<path fill="none" stroke="#000000" d="M97.5713,-266.1467C97.195,-255.8982 97.3949,-242.9304 99.6414,-231.6 100.2178,-228.6928 101.02,-225.7199 101.9532,-222.79"/>
<polygon fill="#000000" stroke="#000000" points="105.3306,-223.746 105.4929,-213.1524 98.7598,-221.3326 105.3306,-223.746"/>
<text text-anchor="middle" x="122.1211" y="-235.8" font-family="Times,serif" font-size="14.00" fill="#000000">data1_2</text>
</g>
<!-- pre2&#45;&gt;main -->
<g id="edge4" class="edge">
<title>pre2&#45;&gt;main</title>
<path fill="none" stroke="#000000" d="M183.254,-269.1356C176.802,-262.7871 169.2978,-255.3015 162.6414,-248.4 153.4449,-238.8649 143.4967,-228.1495 135.0049,-218.876"/>
<polygon fill="#000000" stroke="#000000" points="137.5873,-216.5135 128.2628,-211.483 132.415,-221.2303 137.5873,-216.5135"/>
<text text-anchor="middle" x="185.1211" y="-235.8" font-family="Times,serif" font-size="14.00" fill="#000000">data2_2</text>
</g>
<!-- log_database1 -->
<g id="node7" class="node">
<title>log_database1</title>
<path fill="none" stroke="#000000" d="M273.0454,-210.3273C273.0454,-212.1331 251.4933,-213.6 224.9612,-213.6 198.4291,-213.6 176.8769,-212.1331 176.8769,-210.3273 176.8769,-210.3273 176.8769,-180.8727 176.8769,-180.8727 176.8769,-179.0669 198.4291,-177.6 224.9612,-177.6 251.4933,-177.6 273.0454,-179.0669 273.0454,-180.8727 273.0454,-180.8727 273.0454,-210.3273 273.0454,-210.3273"/>
<path fill="none" stroke="#000000" d="M273.0454,-210.3273C273.0454,-208.5214 251.4933,-207.0545 224.9612,-207.0545 198.4291,-207.0545 176.8769,-208.5214 176.8769,-210.3273"/>
<text text-anchor="middle" x="224.9612" y="-191.4" font-family="Times,serif" font-size="14.00" fill="#000000">log_database1</text>
</g>
<!-- pre2&#45;&gt;log_database1 -->
<g id="edge6" class="edge">
<title>pre2&#45;&gt;log_database1</title>
<path fill="none" stroke="#000000" d="M205.1648,-266.5249C207.0985,-260.7632 209.1875,-254.3334 210.9612,-248.4 213.3674,-240.3502 215.7849,-231.5485 217.9177,-223.4793"/>
<polygon fill="#000000" stroke="#000000" points="221.3152,-224.3209 220.4446,-213.7619 214.5405,-222.5591 221.3152,-224.3209"/>
</g>
<!-- post1 -->
<g id="node8" class="node">
<title>post1</title>
<ellipse fill="none" stroke="#000000" cx="31.9612" cy="-106.8" rx="31.9224" ry="18"/>
<text text-anchor="middle" x="31.9612" y="-102.6" font-family="Times,serif" font-size="14.00" fill="#000000">post1</text>
</g>
<!-- main&#45;&gt;post1 -->
<g id="edge7" class="edge">
<title>main&#45;&gt;post1</title>
<path fill="none" stroke="#000000" d="M98.8331,-179.9159C92.8212,-173.6351 85.8671,-166.3097 79.6414,-159.6 70.9346,-150.2164 61.4629,-139.7767 53.2726,-130.6739"/>
<polygon fill="#000000" stroke="#000000" points="55.7404,-128.1835 46.4563,-123.0789 50.5307,-132.859 55.7404,-128.1835"/>
<text text-anchor="middle" x="95.1211" y="-147" font-family="Times,serif" font-size="14.00" fill="#000000">data3</text>
</g>
<!-- post2 -->
<g id="node9" class="node">
<title>post2</title>
<ellipse fill="none" stroke="#000000" cx="113.9612" cy="-106.8" rx="31.9224" ry="18"/>
<text text-anchor="middle" x="113.9612" y="-102.6" font-family="Times,serif" font-size="14.00" fill="#000000">post2</text>
</g>
<!-- main&#45;&gt;post2 -->
<g id="edge8" class="edge">
<title>main&#45;&gt;post2</title>
<path fill="none" stroke="#000000" d="M113.9612,-177.2006C113.9612,-165.0949 113.9612,-149.0076 113.9612,-135.2674"/>
<polygon fill="#000000" stroke="#000000" points="117.4613,-134.872 113.9612,-124.872 110.4613,-134.8721 117.4613,-134.872"/>
<text text-anchor="middle" x="129.1211" y="-147" font-family="Times,serif" font-size="14.00" fill="#000000">data3</text>
</g>
<!-- post3 -->
<g id="node10" class="node">
<title>post3</title>
<ellipse fill="none" stroke="#000000" cx="195.9612" cy="-106.8" rx="31.9224" ry="18"/>
<text text-anchor="middle" x="195.9612" y="-102.6" font-family="Times,serif" font-size="14.00" fill="#000000">post3</text>
</g>
<!-- main&#45;&gt;post3 -->
<g id="edge9" class="edge">
<title>main&#45;&gt;post3</title>
<path fill="none" stroke="#000000" d="M128.9216,-179.8896C134.8738,-173.6052 141.7675,-166.2842 147.9612,-159.6 156.6878,-150.1822 166.2158,-139.7359 174.466,-130.6376"/>
<polygon fill="#000000" stroke="#000000" points="177.2191,-132.8115 181.3349,-123.0488 172.0293,-128.114 177.2191,-132.8115"/>
<text text-anchor="middle" x="178.1211" y="-147" font-family="Times,serif" font-size="14.00" fill="#000000">data3</text>
</g>
<!-- readonly_database1 -->
<g id="node6" class="node">
<title>readonly_database1</title>
<path fill="none" stroke="#000000" d="M296.6353,-387.9273C296.6353,-389.7331 268.0955,-391.2 232.9612,-391.2 197.8268,-391.2 169.2871,-389.7331 169.2871,-387.9273 169.2871,-387.9273 169.2871,-358.4727 169.2871,-358.4727 169.2871,-356.6669 197.8268,-355.2 232.9612,-355.2 268.0955,-355.2 296.6353,-356.6669 296.6353,-358.4727 296.6353,-358.4727 296.6353,-387.9273 296.6353,-387.9273"/>
<path fill="none" stroke="#000000" d="M296.6353,-387.9273C296.6353,-386.1214 268.0955,-384.6545 232.9612,-384.6545 197.8268,-384.6545 169.2871,-386.1214 169.2871,-387.9273"/>
<text text-anchor="middle" x="232.9612" y="-369" font-family="Times,serif" font-size="14.00" fill="#000000">readonly_database1</text>
</g>
<!-- readonly_database1&#45;&gt;pre2 -->
<g id="edge5" class="edge">
<title>readonly_database1&#45;&gt;pre2</title>
<path fill="none" stroke="#000000" d="M225.9164,-354.8006C221.1582,-342.3734 214.7935,-325.7504 209.4437,-311.7778"/>
<polygon fill="#000000" stroke="#000000" points="212.6093,-310.2573 205.765,-302.1699 206.0721,-312.7603 212.6093,-310.2573"/>
<text text-anchor="middle" x="252.1993" y="-324.6" font-family="Times,serif" font-size="14.00" fill="#000000">query result</text>
</g>
<!-- post1&#45;&gt;end -->
<g id="edge10" class="edge">
<title>post1&#45;&gt;end</title>
<path fill="none" stroke="#000000" d="M46.4563,-90.5211C55.8481,-80.0302 68.3842,-66.1324 79.6414,-54 82.7652,-50.6333 86.0725,-47.1115 89.3521,-43.6446"/>
<polygon fill="#000000" stroke="#000000" points="92.0531,-45.8831 96.4056,-36.2236 86.9793,-41.0606 92.0531,-45.8831"/>
<text text-anchor="middle" x="95.1211" y="-58.2" font-family="Times,serif" font-size="14.00" fill="#000000">data4</text>
</g>
<!-- post2&#45;&gt;end -->
<g id="edge11" class="edge">
<title>post2&#45;&gt;end</title>
<path fill="none" stroke="#000000" d="M113.9612,-88.4006C113.9612,-76.2949 113.9612,-60.2076 113.9612,-46.4674"/>
<polygon fill="#000000" stroke="#000000" points="117.4613,-46.072 113.9612,-36.072 110.4613,-46.0721 117.4613,-46.072"/>
<text text-anchor="middle" x="129.1211" y="-58.2" font-family="Times,serif" font-size="14.00" fill="#000000">data5</text>
</g>
<!-- post3&#45;&gt;end -->
<g id="edge12" class="edge">
<title>post3&#45;&gt;end</title>
<path fill="none" stroke="#000000" d="M181.3349,-90.5512C171.8666,-80.0723 159.2441,-66.1766 147.9612,-54 144.8534,-50.6461 141.5693,-47.1318 138.3164,-43.6687"/>
<polygon fill="#000000" stroke="#000000" points="140.7312,-41.1277 131.3255,-36.2509 135.637,-45.9288 140.7312,-41.1277"/>
<text text-anchor="middle" x="178.1211" y="-58.2" font-family="Times,serif" font-size="14.00" fill="#000000">data6</text>
</g>
</g>
</svg>
