<?xml version="1.0" encoding="UTF-8" standalone="no"?>
<!DOCTYPE svg PUBLIC "-//W3C//DTD SVG 1.1//EN"
 "http://www.w3.org/Graphics/SVG/1.1/DTD/svg11.dtd">
<!-- Generated by graphviz version 2.40.1 (20161225.0304)
 -->
<!-- Title: data_flow_diagram Pages: 1 -->
<svg width="415pt" height="456pt"
 viewBox="0.00 0.00 414.96 456.00" xmlns="http://www.w3.org/2000/svg" xmlns:xlink="http://www.w3.org/1999/xlink">
<g id="graph0" class="graph" transform="scale(1 1) rotate(0) translate(4 452)">
<title>data_flow_diagram</title>
<polygon fill="#ffffff" stroke="transparent" points="-4,4 -4,-452 410.9612,-452 410.9612,4 -4,4"/>
<g id="clust1" class="cluster">
<title>cluster</title>
<polygon fill="none" stroke="#000000" points="302.9612,-8 302.9612,-440 398.9612,-440 398.9612,-8 302.9612,-8"/>
<text text-anchor="middle" x="350.9612" y="-423.4" font-family="Times,serif" font-size="14.00" fill="#000000">legends</text>
</g>
<!-- start -->
<g id="node1" class="node">
<title>start</title>
<polygon fill="none" stroke="#000000" points="134.9612,-407.2 80.9612,-407.2 80.9612,-371.2 134.9612,-371.2 134.9612,-407.2"/>
<text text-anchor="middle" x="107.9612" y="-385" font-family="Times,serif" font-size="14.00" fill="#000000">start</text>
</g>
<!-- pre1 -->
<g id="node3" class="node">
<title>pre1</title>
<ellipse fill="none" stroke="#000000" cx="94.9612" cy="-300.4" rx="28.3913" ry="18"/>
<text text-anchor="middle" x="94.9612" y="-296.2" font-family="Times,serif" font-size="14.00" fill="#000000">pre1</text>
</g>
<!-- start&#45;&gt;pre1 -->
<g id="edge1" class="edge">
<title>start&#45;&gt;pre1</title>
<path fill="none" stroke="#000000" d="M100.5466,-371.1794C98.5598,-365.5221 96.6774,-359.1884 95.6414,-353.2 94.2877,-345.3749 93.7722,-336.7999 93.6827,-328.8785"/>
<polygon fill="#000000" stroke="#000000" points="97.1851,-328.6482 93.7859,-318.6134 90.1854,-328.5777 97.1851,-328.6482"/>
<text text-anchor="middle" x="118.1211" y="-340.6" font-family="Times,serif" font-size="14.00" fill="#000000">data1_1</text>
</g>
<!-- pre2 -->
<g id="node4" class="node">
<title>pre2</title>
<ellipse fill="none" stroke="#000000" cx="198.9612" cy="-300.4" rx="28.3913" ry="18"/>
<text text-anchor="middle" x="198.9612" y="-296.2" font-family="Times,serif" font-size="14.00" fill="#000000">pre2</text>
</g>
<!-- start&#45;&gt;pre2 -->
<g id="edge2" class="edge">
<title>start&#45;&gt;pre2</title>
<path fill="none" stroke="#000000" d="M126.8164,-370.8006C141.0913,-356.8708 160.7686,-337.6692 175.9675,-322.8378"/>
<polygon fill="#000000" stroke="#000000" points="178.7423,-325.0203 183.455,-315.5313 173.8535,-320.0104 178.7423,-325.0203"/>
<text text-anchor="middle" x="184.1211" y="-340.6" font-family="Times,serif" font-size="14.00" fill="#000000">data2_1</text>
</g>
<!-- end -->
<g id="node2" class="node">
<title>end</title>
<polygon fill="none" stroke="#000000" points="140.9612,-52 86.9612,-52 86.9612,-16 140.9612,-16 140.9612,-52"/>
<text text-anchor="middle" x="113.9612" y="-29.8" font-family="Times,serif" font-size="14.00" fill="#000000">end</text>
</g>
<!-- main -->
<g id="node5" class="node">
<title>main</title>
<ellipse fill="none" stroke="#000000" cx="113.9612" cy="-211.6" rx="30.1958" ry="18"/>
<text text-anchor="middle" x="113.9612" y="-207.4" font-family="Times,serif" font-size="14.00" fill="#000000">main</text>
</g>
<!-- pre1&#45;&gt;main -->
<g id="edge3" class="edge">
<title>pre1&#45;&gt;main</title>
<path fill="none" stroke="#000000" d="M93.1695,-282.0574C92.6674,-271.7809 92.8754,-258.8149 95.6414,-247.6 96.4474,-244.3318 97.5952,-241.0236 98.9283,-237.8052"/>
<polygon fill="#000000" stroke="#000000" points="102.1958,-239.0839 103.327,-228.5496 95.8734,-236.0792 102.1958,-239.0839"/>
<text text-anchor="middle" x="118.1211" y="-251.8" font-family="Times,serif" font-size="14.00" fill="#000000">data1_2</text>
</g>
<!-- pre2&#45;&gt;main -->
<g id="edge4" class="edge">
<title>pre2&#45;&gt;main</title>
<path fill="none" stroke="#000000" d="M183.7651,-285.0527C177.5028,-278.6915 170.193,-271.2188 163.6414,-264.4 154.376,-254.7567 144.2438,-244.0229 135.5604,-234.7649"/>
<polygon fill="#000000" stroke="#000000" points="138.0472,-232.3 128.6579,-227.3917 132.937,-237.084 138.0472,-232.3"/>
<text text-anchor="middle" x="186.1211" y="-251.8" font-family="Times,serif" font-size="14.00" fill="#000000">data2_2</text>
</g>
<!-- log_database1 -->
<g id="node7" class="node">
<title>log_database1</title>
<path fill="none" stroke="#000000" d="M277.0454,-226.3273C277.0454,-228.1331 255.4933,-229.6 228.9612,-229.6 202.4291,-229.6 180.8769,-228.1331 180.8769,-226.3273 180.8769,-226.3273 180.8769,-196.8727 180.8769,-196.8727 180.8769,-195.0669 202.4291,-193.6 228.9612,-193.6 255.4933,-193.6 277.0454,-195.0669 277.0454,-196.8727 277.0454,-196.8727 277.0454,-226.3273 277.0454,-226.3273"/>
<path fill="none" stroke="#000000" d="M277.0454,-226.3273C277.0454,-224.5214 255.4933,-223.0545 228.9612,-223.0545 202.4291,-223.0545 180.8769,-224.5214 180.8769,-226.3273"/>
<text text-anchor="middle" x="228.9612" y="-207.4" font-family="Times,serif" font-size="14.00" fill="#000000">log_database1</text>
</g>
<!-- pre2&#45;&gt;log_database1 -->
<g id="edge6" class="edge">
<title>pre2&#45;&gt;log_database1</title>
<path fill="none" stroke="#000000" d="M205.0321,-282.43C209.1929,-270.1142 214.7947,-253.5328 219.5323,-239.5095"/>
<polygon fill="#000000" stroke="#000000" points="222.9114,-240.4423 222.7963,-229.8481 216.2797,-238.2018 222.9114,-240.4423"/>
<text text-anchor="middle" x="225.9065" y="-251.8" font-family="Times,serif" font-size="14.00" fill="#000000">log</text>
</g>
<!-- post1 -->
<g id="node8" class="node">
<title>post1</title>
<ellipse fill="none" stroke="#000000" cx="31.9612" cy="-122.8" rx="31.9224" ry="18"/>
<text text-anchor="middle" x="31.9612" y="-118.6" font-family="Times,serif" font-size="14.00" fill="#000000">post1</text>
</g>
<!-- main&#45;&gt;post1 -->
<g id="edge7" class="edge">
<title>main&#45;&gt;post1</title>
<path fill="none" stroke="#000000" d="M98.8331,-195.9159C92.8212,-189.6351 85.8671,-182.3097 79.6414,-175.6 70.9346,-166.2164 61.4629,-155.7767 53.2726,-146.6739"/>
<polygon fill="#000000" stroke="#000000" points="55.7404,-144.1835 46.4563,-139.0789 50.5307,-148.859 55.7404,-144.1835"/>
<text text-anchor="middle" x="95.1211" y="-163" font-family="Times,serif" font-size="14.00" fill="#000000">data3</text>
</g>
<!-- post2 -->
<g id="node9" class="node">
<title>post2</title>
<ellipse fill="none" stroke="#000000" cx="113.9612" cy="-122.8" rx="31.9224" ry="18"/>
<text text-anchor="middle" x="113.9612" y="-118.6" font-family="Times,serif" font-size="14.00" fill="#000000">post2</text>
</g>
<!-- main&#45;&gt;post2 -->
<g id="edge8" class="edge">
<title>main&#45;&gt;post2</title>
<path fill="none" stroke="#000000" d="M113.9612,-193.2006C113.9612,-181.0949 113.9612,-165.0076 113.9612,-151.2674"/>
<polygon fill="#000000" stroke="#000000" points="117.4613,-150.872 113.9612,-140.872 110.4613,-150.8721 117.4613,-150.872"/>
<text text-anchor="middle" x="129.1211" y="-163" font-family="Times,serif" font-size="14.00" fill="#000000">data3</text>
</g>
<!-- post3 -->
<g id="node10" class="node">
<title>post3</title>
<ellipse fill="none" stroke="#000000" cx="195.9612" cy="-122.8" rx="31.9224" ry="18"/>
<text text-anchor="middle" x="195.9612" y="-118.6" font-family="Times,serif" font-size="14.00" fill="#000000">post3</text>
</g>
<!-- main&#45;&gt;post3 -->
<g id="edge9" class="edge">
<title>main&#45;&gt;post3</title>
<path fill="none" stroke="#000000" d="M128.9216,-195.8896C134.8738,-189.6052 141.7675,-182.2842 147.9612,-175.6 156.6878,-166.1822 166.2158,-155.7359 174.466,-146.6376"/>
<polygon fill="#000000" stroke="#000000" points="177.2191,-148.8115 181.3349,-139.0488 172.0293,-144.114 177.2191,-148.8115"/>
<text text-anchor="middle" x="178.1211" y="-163" font-family="Times,serif" font-size="14.00" fill="#000000">data3</text>
</g>
<!-- readonly_database1 -->
<g id="node6" class="node">
<title>readonly_database1</title>
<path fill="none" stroke="#000000" d="M292.6353,-403.9273C292.6353,-405.7331 264.0955,-407.2 228.9612,-407.2 193.8268,-407.2 165.2871,-405.7331 165.2871,-403.9273 165.2871,-403.9273 165.2871,-374.4727 165.2871,-374.4727 165.2871,-372.6669 193.8268,-371.2 228.9612,-371.2 264.0955,-371.2 292.6353,-372.6669 292.6353,-374.4727 292.6353,-374.4727 292.6353,-403.9273 292.6353,-403.9273"/>
<path fill="none" stroke="#000000" d="M292.6353,-403.9273C292.6353,-402.1214 264.0955,-400.6545 228.9612,-400.6545 193.8268,-400.6545 165.2871,-402.1214 165.2871,-403.9273"/>
<text text-anchor="middle" x="228.9612" y="-385" font-family="Times,serif" font-size="14.00" fill="#000000">readonly_database1</text>
</g>
<!-- readonly_database1&#45;&gt;pre2 -->
<g id="edge5" class="edge">
<title>readonly_database1&#45;&gt;pre2</title>
<path fill="none" stroke="#000000" d="M222.7452,-370.8006C218.5468,-358.3734 212.9309,-341.7504 208.2104,-327.7778"/>
<polygon fill="#000000" stroke="#000000" points="211.4811,-326.5236 204.9645,-318.1699 204.8494,-328.7641 211.4811,-326.5236"/>
<text text-anchor="middle" x="250.1993" y="-340.6" font-family="Times,serif" font-size="14.00" fill="#000000">query result</text>
</g>
<!-- post1&#45;&gt;end -->
<g id="edge10" class="edge">
<title>post1&#45;&gt;end</title>
<path fill="none" stroke="#000000" d="M46.4563,-106.5211C55.8481,-96.0302 68.3842,-82.1324 79.6414,-70 82.7652,-66.6333 86.0725,-63.1115 89.3521,-59.6446"/>
<polygon fill="#000000" stroke="#000000" points="92.0531,-61.8831 96.4056,-52.2236 86.9793,-57.0606 92.0531,-61.8831"/>
<text text-anchor="middle" x="95.1211" y="-74.2" font-family="Times,serif" font-size="14.00" fill="#000000">data4</text>
</g>
<!-- post2&#45;&gt;end -->
<g id="edge11" class="edge">
<title>post2&#45;&gt;end</title>
<path fill="none" stroke="#000000" d="M113.9612,-104.4006C113.9612,-92.2949 113.9612,-76.2076 113.9612,-62.4674"/>
<polygon fill="#000000" stroke="#000000" points="117.4613,-62.072 113.9612,-52.072 110.4613,-62.0721 117.4613,-62.072"/>
<text text-anchor="middle" x="129.1211" y="-74.2" font-family="Times,serif" font-size="14.00" fill="#000000">data5</text>
</g>
<!-- post3&#45;&gt;end -->
<g id="edge12" class="edge">
<title>post3&#45;&gt;end</title>
<path fill="none" stroke="#000000" d="M181.3349,-106.5512C171.8666,-96.0723 159.2441,-82.1766 147.9612,-70 144.8534,-66.6461 141.5693,-63.1318 138.3164,-59.6687"/>
<polygon fill="#000000" stroke="#000000" points="140.7312,-57.1277 131.3255,-52.2509 135.637,-61.9288 140.7312,-57.1277"/>
<text text-anchor="middle" x="178.1211" y="-74.2" font-family="Times,serif" font-size="14.00" fill="#000000">data6</text>
</g>
<!-- legends0 -->
<g id="node11" class="node">
<title>legends0</title>
<polygon fill="none" stroke="#000000" points="385.2746,-407.2 310.6477,-407.2 310.6477,-371.2 385.2746,-371.2 385.2746,-407.2"/>
<text text-anchor="middle" x="347.9612" y="-385" font-family="Times,serif" font-size="14.00" fill="#000000">terminator</text>
</g>
<!-- legends1 -->
<g id="node12" class="node">
<title>legends1</title>
<ellipse fill="none" stroke="#000000" cx="350.9612" cy="-211.6" rx="39.9857" ry="18"/>
<text text-anchor="middle" x="350.9612" y="-207.4" font-family="Times,serif" font-size="14.00" fill="#000000">process</text>
</g>
<!-- legends0&#45;&gt;legends1 -->
<g id="edge13" class="edge">
<title>legends0&#45;&gt;legends1</title>
<path fill="none" stroke="#000000" d="M348.2653,-371.1934C348.7887,-340.212 349.8631,-276.606 350.4859,-239.7346"/>
<polygon fill="#000000" stroke="#000000" points="353.9867,-239.712 350.6562,-229.6543 346.9877,-239.5937 353.9867,-239.712"/>
<text text-anchor="middle" x="373.45" y="-296.2" font-family="Times,serif" font-size="14.00" fill="#000000">dataflow</text>
</g>
<!-- legends2 -->
<g id="node13" class="node">
<title>legends2</title>
<path fill="none" stroke="#000000" d="M383.993,-48.7273C383.993,-50.5331 369.1876,-52 350.9612,-52 332.7347,-52 317.9293,-50.5331 317.9293,-48.7273 317.9293,-48.7273 317.9293,-19.2727 317.9293,-19.2727 317.9293,-17.4669 332.7347,-16 350.9612,-16 369.1876,-16 383.993,-17.4669 383.993,-19.2727 383.993,-19.2727 383.993,-48.7273 383.993,-48.7273"/>
<path fill="none" stroke="#000000" d="M383.993,-48.7273C383.993,-46.9214 369.1876,-45.4545 350.9612,-45.4545 332.7347,-45.4545 317.9293,-46.9214 317.9293,-48.7273"/>
<text text-anchor="middle" x="350.9612" y="-29.8" font-family="Times,serif" font-size="14.00" fill="#000000">datastore</text>
</g>
<!-- legends1&#45;&gt;legends2 -->
</g>
</svg>
